<?xml version="1.0" encoding="UTF-8" standalone="no"?>
<svg width="11px" height="11px" viewBox="0 0 11 11" version="1.1" xmlns="http://www.w3.org/2000/svg" xmlns:xlink="http://www.w3.org/1999/xlink">
    <defs></defs>
    <g id="Plugins" stroke="none" stroke-width="1" fill="none" fill-rule="evenodd">
        <g id="design/plugins" transform="translate(-125.000000, -220.000000)" fill="#151515">
            <g id="entry-2" transform="translate(30.000000, 175.000000)">
                <path d="M103.29955,47.3571429 C103.956321,47.3571429 104.488739,46.8294785 104.488739,46.1785714 C104.488739,45.5276644 103.956321,45 103.29955,45 C102.642778,45 102.11036,45.5276644 102.11036,46.1785714 C102.11036,46.8294785 102.642778,47.3571429 103.29955,47.3571429 Z M95.0061695,53.1824779 L95.7742117,54.4162946 L98.9515766,53.2438616 L99.930156,51.9977677 L101.317568,53.6367188 L100.927365,55.9877232 L102.513059,55.9877232 L102.903153,53.219308 L101.329955,51.0892857 L102.506757,49.7142857 L103.621622,51.4268972 L105.993806,50.6657365 L105.677904,49.7511161 L104.086149,50.2728795 C104.086149,50.2728795 103.838401,49.4319197 103.237613,48.5602679 C102.636824,47.688616 101.441466,47.0809152 100.846847,46.9029018 C100.252228,46.7248884 99.5027911,46.6082589 98.598536,46.8415179 C98.598536,46.8415179 96.6227477,47.4799107 96.6227477,47.4799107 L96.9943694,48.4804688 C96.9943694,48.4804688 98.6542793,47.9587053 98.6542793,47.9587054 C99.6576335,47.7684152 100.091216,48.1612723 100.091216,48.1612723 L97.7623874,52.0591518 L95.0061695,53.1824779 Z" id="runner"></path>
            </g>
        </g>
    </g>
</svg>