<?xml version="1.0" encoding="UTF-8" standalone="no"?>
<svg width="105px" height="30px" viewBox="0 0 105 30" version="1.1" xmlns="http://www.w3.org/2000/svg" xmlns:xlink="http://www.w3.org/1999/xlink" xmlns:sketch="http://www.bohemiancoding.com/sketch/ns">
    <!-- Generator: Sketch 3.0.4 (8053) - http://www.bohemiancoding.com/sketch -->
    <title>client/img/logo</title>
    <desc>Created with Sketch.</desc>
    <defs></defs>
    <g id="Logo" stroke="none" stroke-width="1" fill="none" fill-rule="evenodd" sketch:type="MSPage">
        <g id="client/img/logo" sketch:type="MSArtboardGroup" transform="translate(-15.000000, -13.000000)" fill="#555555">
            <g id="logo" sketch:type="MSLayerGroup" transform="translate(15.000000, 13.000000)">
                <path d="M82.5,27 L9,27 L9,28.7970711 C9,29.4636601 8.52988629,29.7388257 7.94997163,29.4166509 L0,25 L77.875,25 L82.9999996,25 C84.4099304,25 89.1147286,24.6559612 90.625,22.65625 C94,18.1875 95.7296008,13.3580608 95.7296008,13.3580608 L97.5910508,13.3580608 C97.5910508,13.3580608 95.1216151,20.8419598 92.0625,24.03125 C90.59375,25.5625 87.5104389,27 84,27 L82.5,27 Z M11.1891351,12.3770171 L11.1891351,22.303907 L9.33436597,22.303907 L9.33436597,0.353109346 L17.0184096,0.353109346 C19.5018384,0.353109346 21.3799682,0.858500664 22.6528554,1.86929846 C23.9257425,2.88009626 24.5621766,4.39627021 24.5621766,6.41786581 C24.5621766,7.60467317 24.2166838,8.64814281 23.5256879,9.54830602 C22.834692,10.4484692 21.8553629,11.1097524 20.5876712,11.5321754 L20.5876712,11.5774347 C21.9800539,11.9193962 22.9697738,12.5203341 23.5568605,13.3802666 C24.1439472,14.240199 24.4374862,15.3490427 24.4374862,16.7068308 L24.4374862,18.7736756 C24.4374862,19.4676562 24.5180146,20.0811661 24.6790738,20.6142236 C24.840133,21.1472811 25.1180858,21.5898128 25.5129406,21.941832 L25.5129406,22.303907 L23.6114125,22.303907 C23.2269487,21.9317725 22.9567889,21.4238668 22.8009252,20.7801746 C22.6450614,20.1364825 22.5671307,19.4575987 22.5671307,18.7435027 L22.5671307,16.7370037 C22.5671307,15.3591002 22.1333165,14.2879723 21.2656751,13.5235879 C20.3980336,12.7592035 19.1433494,12.3770171 17.5015847,12.3770171 L11.1891351,12.3770171 Z M11.1891351,10.8381983 L16.7846152,10.8381983 C18.8731892,10.8381983 20.3798493,10.4459542 21.3046408,9.66145446 C22.2294323,8.87695468 22.6918211,7.79074051 22.6918211,6.40277935 C22.6918211,4.92429899 22.23203,3.80288343 21.312434,3.03849902 C20.3928379,2.27411462 18.9615108,1.89192815 17.0184096,1.89192815 L11.1891351,1.89192815 L11.1891351,10.8381983 Z M40.9277867,19.6939496 L40.8810278,19.6939496 C40.3510911,20.6293147 39.6393241,21.3484288 38.7457053,21.8513132 C37.8520866,22.3541977 36.7714476,22.6056362 35.5037559,22.6056362 C33.6853457,22.6056362 32.2825931,22.0373852 31.2954561,20.9008663 C30.3083192,19.7643474 29.8147581,17.9439329 29.8147581,15.4395682 L29.8147581,5.9803585 L31.6851135,5.9803585 L31.6851135,15.4697411 C31.6851135,17.5013944 32.0280086,18.9396224 32.713809,19.7844684 C33.3996095,20.6293143 34.4023178,21.0517309 35.721964,21.0517309 C37.1663013,21.0517309 38.3014918,20.7500047 39.1275696,20.1465434 C39.9536474,19.543082 40.5329322,18.69322 40.8654415,17.5969318 L40.8654415,5.9803585 L42.735797,5.9803585 L42.735797,22.303907 L41.0836496,22.303907 L40.9277867,19.6939496 Z M49.3443862,5.9803585 L49.5002491,8.99765027 L49.547008,9.01273673 C50.0873356,7.97679471 50.8198842,7.16213408 51.7446757,6.5687304 C52.6694672,5.97532672 53.7553015,5.67862932 55.0022114,5.67862932 C56.8206216,5.67862932 58.1973973,6.1915638 59.1325797,7.21744813 C60.0677621,8.24333246 60.5353463,9.89779757 60.5353463,12.1808931 L60.5353463,22.303907 L58.6649908,22.303907 L58.6649908,12.211066 C58.6649908,10.3503934 58.3220958,9.05799973 57.6362953,8.33384608 C56.9504949,7.60969244 55.9218097,7.24762105 54.5502088,7.24762105 C53.2825171,7.24762105 52.2304527,7.5996349 51.393984,8.30367317 C50.5575153,9.00771143 49.9314721,9.90283238 49.5158354,10.9890628 L49.5158354,22.303907 L47.64548,22.303907 L47.64548,5.9803585 L49.3443862,5.9803585 Z M67.1127629,5.9803585 L67.2686259,8.99765027 L67.3153847,9.01273673 C67.8557124,7.97679471 68.5882609,7.16213408 69.5130524,6.5687304 C70.4378439,5.97532672 71.5236783,5.67862932 72.7705881,5.67862932 C74.5889983,5.67862932 75.965774,6.1915638 76.9009564,7.21744813 C77.8361388,8.24333246 78.303723,9.89779757 78.303723,12.1808931 L78.303723,22.303907 L76.4333675,22.303907 L76.4333675,12.211066 C76.4333675,10.3503934 76.0904725,9.05799973 75.404672,8.33384608 C74.7188716,7.60969244 73.6901864,7.24762105 72.3185856,7.24762105 C71.0508939,7.24762105 69.9988295,7.5996349 69.1623608,8.30367317 C68.3258921,9.00771143 67.6998488,9.90283238 67.2842122,10.9890628 L67.2842122,22.303907 L65.4138567,22.303907 L65.4138567,5.9803585 L67.1127629,5.9803585 Z M90.9442085,7.53426377 L89.5570282,7.44374501 C88.362073,7.44374501 87.3931346,7.7580431 86.6501842,8.38664869 C85.9072337,9.01525429 85.3747073,9.8978033 85.0525889,11.0343222 L85.0525889,22.303907 L83.1822334,22.303907 L83.1822334,5.9803585 L84.8187944,5.9803585 L85.0525889,8.6959211 L85.0525889,8.77135339 L85.0993478,8.78643985 C85.5773299,7.80078628 86.2163616,7.03641334 87.0164621,6.4932981 C87.8165626,5.95018287 88.793294,5.67862932 89.9466856,5.67862932 C90.1856767,5.67862932 90.4168711,5.69623002 90.6402758,5.73143193 C90.8636805,5.76663384 91.0481164,5.80434961 91.1935893,5.84458037 L90.9442085,7.53426377 Z M98.1640625,11.517339 L96.2803819,11.517339 L97.1310764,8.95088235 L99.0147569,8.95088235 L98.1640625,11.517339 Z M100.580991,20.9052233 C100.192426,21.1288815 99.7504443,21.2426017 99.2453191,21.2426017 C98.7637873,21.2426017 98.4085299,21.1410547 98.1683434,20.9439241 C97.9722882,20.7836277 97.9394635,20.5060129 98.0982592,20.0565026 L98.23587,19.6678146 L97.8316715,19.6678146 L96.9713852,19.6678146 L96.6619395,19.6678146 L96.5419789,19.9628843 C96.2380479,20.7133789 96.2961756,21.3700431 96.7101824,21.8957512 C97.1120415,22.4122888 97.8006353,22.6648593 98.7569894,22.6648593 C99.6701712,22.6648593 100.491577,22.4591449 101.217587,22.0417607 C101.968131,21.6130067 102.529083,21.003503 102.882161,20.2338715 C103.21785,19.5047915 103.221022,18.9047708 102.866346,18.4755516 C102.539689,18.0840089 101.928407,17.7851292 101.034045,17.5639589 C100.361787,17.3996031 99.9622226,17.2202562 99.8506934,17.0646717 C99.752573,16.9282574 99.7527262,16.7432672 99.8692409,16.4762565 C99.9817396,16.2043244 100.2006,15.9700921 100.551064,15.7561517 C100.90521,15.540625 101.340509,15.4293512 101.866675,15.4293512 C102.39518,15.4293512 102.72325,15.546671 102.879016,15.7662572 C103.032993,15.9844478 103.035935,16.2471763 102.880962,16.587485 L102.694907,16.9970446 L103.134238,16.9970446 L104.022329,16.9970446 L104.341593,16.9970446 L104.479557,16.6991953 C104.841512,15.9203694 104.832337,15.2572298 104.436817,14.7464413 C104.04437,14.245507 103.34888,14 102.37927,14 C101.43722,14 100.585801,14.2155784 99.8393212,14.6510932 C99.086605,15.0930148 98.5546249,15.6775388 98.2580081,16.3886105 C97.9567028,17.109957 97.9870401,17.6962201 98.3695653,18.1005068 C98.7095062,18.462805 99.3223813,18.7439117 100.208609,18.9594609 C100.838597,19.1179954 101.213922,19.3077161 101.332485,19.4968331 C101.442816,19.673633 101.441302,19.887009 101.31992,20.1659967 C101.195221,20.445988 100.956111,20.6900119 100.580991,20.9052233 Z" sketch:type="MSShapeGroup"></path>
            </g>
        </g>
    </g>
</svg>