<?xml version="1.0" encoding="UTF-8" standalone="no"?>
<svg width="78px" height="20px" viewBox="0 0 78 20" version="1.1" xmlns="http://www.w3.org/2000/svg" xmlns:xlink="http://www.w3.org/1999/xlink" xmlns:sketch="http://www.bohemiancoding.com/sketch/ns">
    <!-- Generator: Sketch 3.1.1 (8761) - http://www.bohemiancoding.com/sketch -->
    <title>themes/light/img/logo</title>
    <desc>Created with Sketch.</desc>
    <defs></defs>
    <g id="Logo" stroke="none" stroke-width="1" fill="none" fill-rule="evenodd" sketch:type="MSPage">
        <g id="themes/light/img/logo" sketch:type="MSArtboardGroup" transform="translate(-29.000000, -15.000000)" fill="#555555">
            <g id="logoNeu" sketch:type="MSLayerGroup" transform="translate(29.000000, 15.000000)">
                <path d="M0,20 L3.34782609,20 L3.34782609,13.7268442 L3.34782609,10 C3.34782609,6.31810167 6.34557168,3.33333333 10.0434783,3.33333333 L10.0434783,0 C7.44221665,0 5.07192891,0.984635662 3.28806074,2.6 L0,2.6 L0,15 L0,20 Z" id="Rectangle-4" sketch:type="MSShapeGroup"></path>
                <path d="M67,20 L70.3478261,20 L70.3478261,13.7268442 L70.3478261,10 C70.3478261,6.31810167 73.3455717,3.33333333 77.0434783,3.33333333 L77.0434783,0 C74.4422166,0 72.0719289,0.984635662 70.2880607,2.6 L67,2.6 L67,15 L67,20 Z" id="Rectangle-5" sketch:type="MSShapeGroup"></path>
                <path d="M26.7826087,2.54631164 L23.4347826,2.54631164 L23.4347826,10 C23.4347826,13.6818983 20.437037,16.6666667 16.7391304,16.6666667 C13.0412238,16.6666667 10.0434783,13.6818983 10.0434783,10 L10.0434783,5.66666667 C8.82390826,5.66666667 7.68049345,6.09131429 6.69565217,6.85854797 L6.69565217,10 C6.69565217,15.5228475 11.1922706,20 16.7391304,20 C19.3114475,20 21.6579022,19.0371548 23.4347826,17.4536884 L23.4347826,20 L26.7826087,20 L26.7826087,18.7268442 L26.7826087,10 C26.7826087,6.31810167 29.7803543,3.33333333 33.4782609,3.33333333 C37.1761675,3.33333333 40.173913,6.31810167 40.173913,10 L40.173913,18.7268442 L40.173913,20 L43.5217391,20 L43.5217391,10 C43.5217391,4.4771525 39.0251207,0 33.4782609,0 C30.9059438,0 28.5594891,0.962845228 26.7826087,2.54631164 Z" id="Rectangle-5" sketch:type="MSShapeGroup"></path>
                <path d="M47.8114491,2.97226826 C49.6322743,1.1371743 52.16102,0 54.9565217,0 C60.5033816,0 65,4.4771525 65,10 L65,20 L61.6521739,20 L61.6521739,18.7268442 L61.6521739,18.7268442 L61.6521739,10 C61.6521739,6.31810167 58.6544283,3.33333333 54.9565217,3.33333333 C51.2586152,3.33333333 48.2608696,6.31810167 48.2608696,10.0000001 L48.2608696,13.7268442 L48.2608696,17.4536884 L48.2608696,20 L44.9130435,20 L44.9130435,2.97226826 L47.8114491,2.97226826 L47.8114491,2.97226826 Z" id="Rectangle-6" sketch:type="MSShapeGroup"></path>
            </g>
        </g>
    </g>
</svg>