<?xml version="1.0" encoding="UTF-8" standalone="no"?>
<svg width="16px" height="16px" viewBox="0 0 16 16" version="1.1" xmlns="http://www.w3.org/2000/svg" xmlns:xlink="http://www.w3.org/1999/xlink">
    <defs></defs>
    <g id="Runners" stroke="none" stroke-width="1" fill="none" fill-rule="evenodd">
        <g id="design/desktop" transform="translate(-35.000000, -77.000000)" fill="#555555">
            <g id="left" transform="translate(10.000000, 60.000000)">
                <g id="filter">
                    <g id="Mag-Icon-+-themes/light/img/magIcon" transform="translate(25.000000, 17.000000)">
                        <path d="M11.305439,6.40819539 C11.305439,4.04876288 9.28079212,2.13606513 6.78326338,2.13606513 C4.28573465,2.13606513 2.26108779,4.04876288 2.26108779,6.40819539 C2.26108779,8.7676279 4.28573465,10.6803256 6.78326338,10.6803256 C9.28079212,10.6803256 11.305439,8.7676279 11.305439,6.40819539 Z M0,6.40819539 C0,2.86904663 3.03697028,0 6.78326338,0 C10.5295565,0 13.5665268,2.86904663 13.5665268,6.40819539 C13.5665268,7.92202447 13.0108828,9.3132517 12.0817699,10.4097714 L15.834903,13.955382 C16.0551471,14.1634481 16.0550913,14.5014507 15.8343813,14.7099569 L14.6351046,15.8429219 C14.4128308,16.0529054 14.0567867,16.0516487 13.8363649,15.8434147 L9.88373081,12.1093342 C8.95446812,12.5612681 7.90040312,12.8163908 6.78326338,12.8163908 C3.03697028,12.8163908 0,9.94734415 0,6.40819539 Z" id="Mag-Icon"></path>
                    </g>
                </g>
            </g>
        </g>
    </g>
</svg>