<?xml version="1.0" encoding="UTF-8" standalone="no"?>
<svg width="16px" height="16px" viewBox="0 0 16 16" version="1.1" xmlns="http://www.w3.org/2000/svg" xmlns:xlink="http://www.w3.org/1999/xlink">
    <defs></defs>
    <g id="Runners" stroke="none" stroke-width="1" fill="none" fill-rule="evenodd">
        <g id="design/desktop" transform="translate(-632.000000, -77.000000)" fill="#89C42C">
            <g id="left" transform="translate(10.000000, 60.000000)">
                <g id="filter">
                    <g id="newRunner" transform="translate(615.000000, 10.000000)">
                        <g id="add" transform="translate(7.000000, 7.000000)">
                            <g transform="translate(2.000000, 2.000000)">
                                <path d="M0.902656689,4.975 C0.348904691,4.975 -0.1,5.42996144 -0.1,5.97597852 L-0.1,6.02402148 C-0.1,6.57684665 0.350372395,7.025 0.902656689,7.025 L4.975,7.025 L4.975,11.0973433 C4.975,11.6510953 5.42996144,12.1 5.97597852,12.1 L6.02402148,12.1 C6.57684665,12.1 7.025,11.6496276 7.025,11.0973433 L7.025,7.025 L11.0973433,7.025 C11.6510953,7.025 12.1,6.57003856 12.1,6.02402148 L12.1,5.97597852 C12.1,5.42315335 11.6496276,4.975 11.0973433,4.975 L7.025,4.975 L7.025,0.902656689 C7.025,0.348904691 6.57003856,-0.1 6.02402148,-0.1 L5.97597852,-0.1 C5.42315335,-0.1 4.975,0.350372395 4.975,0.902656689 L4.975,4.975 L0.902656689,4.975 Z"></path>
                            </g>
                        </g>
                    </g>
                </g>
            </g>
        </g>
    </g>
</svg>