<?xml version="1.0" encoding="UTF-8" standalone="no"?>
<svg width="16px" height="16px" viewBox="0 0 16 16" version="1.1" xmlns="http://www.w3.org/2000/svg" xmlns:xlink="http://www.w3.org/1999/xlink" xmlns:sketch="http://www.bohemiancoding.com/sketch/ns">
    <!-- Generator: Sketch 3.0.4 (8053) - http://www.bohemiancoding.com/sketch -->
    <title>themes/light/img/actions/runners</title>
    <desc>Created with Sketch.</desc>
    <defs></defs>
    <g id="Runners" stroke="none" stroke-width="1" fill="none" fill-rule="evenodd" sketch:type="MSPage">
        <g id="design/desktop" sketch:type="MSArtboardGroup" transform="translate(-653.000000, -17.000000)" fill="#555555">
            <g id="head" sketch:type="MSLayerGroup">
                <g id="menuToggle" transform="translate(646.000000, 10.000000)" sketch:type="MSShapeGroup">
                    <g id="runner">
                        <path d="M18.5630631,11 C19.3989535,11 20.0765766,10.3284271 20.0765766,9.5 C20.0765766,8.67157288 19.3989535,8 18.5630631,8 C17.7271726,8 17.0495495,8.67157288 17.0495495,9.5 C17.0495495,10.3284271 17.7271726,11 18.5630631,11 Z M8.00785209,18.4140628 L8.98536036,19.984375 L13.0292793,18.4921875 L14.274744,16.9062499 L16.0405405,18.9921875 L15.5439189,21.984375 L17.5620755,21.984375 L18.0585586,18.4609375 L16.0563063,15.75 L17.5540541,14 L18.972973,16.1796874 L21.9921171,15.2109374 L21.5900593,14.0468751 L19.5641892,14.7109375 C19.5641892,14.7109375 19.2488739,13.6406251 18.4842342,12.53125 C17.7195946,11.4218749 16.198229,10.6484375 15.4414414,10.421875 C14.6846539,10.1953125 13.7308251,10.046875 12.579955,10.34375 C12.579955,10.34375 10.0653153,11.15625 10.0653153,11.15625 L10.5382883,12.4296875 C10.5382883,12.4296875 12.6509009,11.765625 12.6509009,11.765625 C13.9278971,11.5234375 14.4797297,12.0234375 14.4797297,12.0234375 L11.5157658,16.984375 L8.00785209,18.4140628 Z"></path>
                    </g>
                </g>
            </g>
        </g>
    </g>
</svg>