<?xml version="1.0" encoding="UTF-8" standalone="no"?>
<svg width="16px" height="16px" viewBox="0 0 16 16" version="1.1" xmlns="http://www.w3.org/2000/svg" xmlns:xlink="http://www.w3.org/1999/xlink" xmlns:sketch="http://www.bohemiancoding.com/sketch/ns">
    <!-- Generator: Sketch 3.0.4 (8053) - http://www.bohemiancoding.com/sketch -->
    <title>client/img/actions/settings</title>
    <desc>Created with Sketch.</desc>
    <defs></defs>
    <g id="Runners" stroke="none" stroke-width="1" fill="none" fill-rule="evenodd" sketch:type="MSPage">
        <g id="design/desktop" sketch:type="MSArtboardGroup" transform="translate(-1407.000000, -17.000000)" fill="#555555">
            <g id="head" sketch:type="MSLayerGroup">
                <g id="menuActions" transform="translate(1360.000000, 10.000000)" sketch:type="MSShapeGroup">
                    <g id="settings">
                        <path d="M62.0208333,13.3541667 L61.3875,13.3541667 C60.8708333,13.3541667 60.4375,12.9083333 60.4375,12.3791667 C60.4375,12.1125 60.55,11.8708333 60.75,11.6916667 L61.1583333,11.2916667 C61.5625,10.8916667 61.5625,10.2375 61.1583333,9.8375 L60.2291667,8.91666667 C60.0458333,8.73333333 59.775,8.625 59.5,8.625 C59.225,8.625 58.9583333,8.73333333 58.7708333,8.91666667 L58.3791667,9.30833333 C58.1916667,9.51666667 57.9416667,9.62916667 57.6708333,9.62916667 C57.1375,9.62916667 56.6916667,9.19583333 56.6916667,8.68333333 L56.6916667,8.04583333 C56.6916667,7.48333333 56.2375,7 55.6708333,7 L54.4041667,7 C53.8375,7 53.3875,7.47916667 53.3875,8.04583333 L53.3875,8.67916667 C53.3875,9.19166667 52.9416667,9.625 52.4083333,9.625 C52.1416667,9.625 51.8958333,9.5125 51.7166667,9.31666667 L51.3125,8.91666667 C51.1291667,8.72916667 50.8583333,8.625 50.5833333,8.625 C50.3083333,8.625 50.0416667,8.73333333 49.8541667,8.91666667 L48.9166667,9.83333333 C48.5166667,10.2333333 48.5166667,10.8875 48.9166667,11.2833333 L49.3083333,11.675 C49.5166667,11.8625 49.6333333,12.1125 49.6333333,12.3791667 C49.6333333,12.9125 49.2,13.3541667 48.6833333,13.3541667 L48.05,13.3541667 C47.4791667,13.3541667 47,13.8 47,14.3666667 L47,15 L47,15.6333333 C47,16.1958333 47.4791667,16.6458333 48.05,16.6458333 L48.6833333,16.6458333 C49.2,16.6458333 49.6333333,17.0916667 49.6333333,17.6208333 C49.6333333,17.8875 49.5166667,18.1375 49.3083333,18.325 L48.9166667,18.7125 C48.5166667,19.1125 48.5166667,19.7666667 48.9166667,20.1625 L49.8458333,21.0875 C50.0291667,21.275 50.3,21.3791667 50.575,21.3791667 C50.85,21.3791667 51.1166667,21.2708333 51.3041667,21.0875 L51.7083333,20.6875 C51.8833333,20.4916667 52.1333333,20.3791667 52.4,20.3791667 C52.9333333,20.3791667 53.3791667,20.8125 53.3791667,21.325 L53.3791667,21.9583333 C53.3791667,22.5208333 53.8291667,23.0041667 54.4,23.0041667 L55.6666667,23.0041667 C56.2333333,23.0041667 56.6833333,22.525 56.6833333,21.9583333 L56.6833333,21.325 C56.6833333,20.8125 57.1291667,20.3791667 57.6625,20.3791667 C57.9291667,20.3791667 58.1791667,20.4958333 58.3708333,20.7 L58.7625,21.0916667 C58.95,21.275 59.2166667,21.3833333 59.4916667,21.3833333 C59.7666667,21.3833333 60.0333333,21.275 60.2208333,21.0916667 L61.15,20.1666667 C61.55,19.7666667 61.55,19.1125 61.15,18.7125 L60.7416667,18.3125 C60.5416667,18.1333333 60.4291667,17.8875 60.4291667,17.625 C60.4291667,17.0916667 60.8625,16.65 61.3791667,16.65 L62.0125,16.65 C62.5791667,16.65 62.9833333,16.2041667 62.9833333,15.6375 L62.9833333,15 L62.9833333,14.3666667 C62.9916667,13.8 62.5875,13.3541667 62.0208333,13.3541667 L62.0208333,13.3541667 Z M58.3666667,15 L58.3666667,15 C58.3666667,16.8375 56.8791667,18.3333333 55.0333333,18.3333333 C53.1875,18.3333333 51.7,16.8375 51.7,15 L51.7,15 C51.7,13.1625 53.1875,11.6666667 55.0333333,11.6666667 C56.8791667,11.6666667 58.3666667,13.1625 58.3666667,15 L58.3666667,15 L58.3666667,15 Z"></path>
                    </g>
                </g>
            </g>
        </g>
    </g>
</svg>